# xmcd
#
# Track frame offsets:
#	150
#	23825
#	44275
#	63882
#	79802
#	99072
#	116567
#	134600
#	158182
#	175952
#
# Disc length: 2641 seconds
#
# Revision: 13
# Processed by: cddbd v1.5.2PL0 Copyright (c) Steve Scherf et al.
# Submitted via: audiograbber 1.80.04
#
DISCID=790a4f0a
DTITLE=Zé Ramalho - 20 Anos - Antologia Acústica CD1
DYEAR=1997
DGENRE=MPB
TTITLE0=Avôhai
TTITLE1=Chão de Giz
TTITLE2=Beira-Mar
TTITLE3=Vila do Sossego
TTITLE4=Canção Agalopada
TTITLE5=A Terceira Lâmina
TTITLE6=Eternas Ondas
TTITLE7=Garoto de Aluguel
TTITLE8=Táxi Lunar
TTITLE9=Kryptônia
EXTD=dayvisondj@hotmail.com\nDayvison DJ Is Of Recife - PE - Brazil\n8690-4073
EXTT0=
EXTT1=
EXTT2=
EXTT3=
EXTT4=
EXTT5=
EXTT6=
EXTT7=
EXTT8=
EXTT9=
PLAYORDER=
